<?xml version="1.0" standalone="no"?>
<!DOCTYPE svg PUBLIC "-//W3C//DTD SVG 20010904//EN"
 "http://www.w3.org/TR/2001/REC-SVG-20010904/DTD/svg10.dtd">
<svg version="1.0" xmlns="http://www.w3.org/2000/svg"
 width="600.000000pt" height="247.000000pt" viewBox="0 0 600.000000 247.000000"
 preserveAspectRatio="xMidYMid meet">
<g transform="translate(0.000000,247.000000) scale(0.100000,-0.100000)"
fill="#000000" stroke="none">
<path d="M530 1308 l0 -513 145 0 145 0 0 198 0 197 155 0 155 0 0 -197 0
-198 675 0 676 0 9 35 c5 19 43 168 84 330 41 162 77 288 79 280 2 -8 39 -157
81 -330 l77 -315 1010 0 1009 0 0 270 0 270 83 -145 c46 -80 117 -201 158
-268 l74 -124 143 -1 142 -2 0 513 0 512 -142 0 -143 0 3 -264 c2 -195 -1
-266 -9 -272 -7 -4 -9 -3 -6 3 6 10 -38 91 -209 381 l-89 152 -852 0 c-802 0
-852 -1 -857 -17 -6 -21 -122 -556 -128 -593 -6 -33 -2 -44 -100 305 l-84 300
-167 3 c-92 1 -167 1 -167 -1 0 -2 -38 -138 -85 -302 -47 -163 -85 -305 -86
-314 -1 -37 -20 37 -80 322 l-63 297 -518 0 -518 0 0 -185 0 -185 -155 0 -155
0 0 185 0 185 -145 0 -145 0 0 -512z m1606 478 c6 -2 16 -33 23 -68 7 -34 19
-87 27 -117 9 -30 16 -67 16 -82 1 -16 5 -29 9 -29 5 0 8 -8 7 -17 -2 -19 10
-88 19 -113 4 -8 5 -21 4 -27 -1 -7 3 -22 9 -34 8 -15 8 -24 0 -34 -9 -10 -9
-19 0 -32 9 -16 10 -15 5 7 -5 19 -4 22 4 10 6 -8 11 -26 11 -39 0 -13 3 -21
7 -18 3 4 11 0 17 -8 9 -13 15 -11 38 15 14 16 22 30 16 30 -6 0 -7 8 -3 18 4
9 11 33 16 52 14 51 16 58 39 135 12 39 27 91 32 117 6 26 14 45 19 42 5 -3 6
2 3 10 -3 9 -1 16 6 16 6 0 9 4 5 10 -3 5 4 43 16 84 25 87 14 82 186 78 l122
-3 21 -65 c23 -69 28 -88 29 -117 1 -11 6 -15 13 -11 7 4 8 3 4 -4 -3 -6 2
-35 12 -64 10 -29 18 -63 17 -75 -1 -12 2 -20 7 -17 4 3 8 1 8 -5 0 -5 3 -17
7 -27 5 -13 3 -15 -7 -9 -8 5 -3 -9 10 -30 20 -32 22 -42 12 -67 -9 -24 -8
-27 2 -18 11 8 15 3 20 -23 7 -39 32 -77 51 -77 12 0 36 52 42 90 5 39 47 223
64 286 11 40 19 76 17 81 -1 4 4 34 12 66 11 46 17 57 29 52 12 -5 13 -3 4 6
-9 9 -8 15 4 28 9 9 18 11 20 6 2 -7 282 -8 811 -5 902 6 821 12 862 -68 12
-23 26 -44 30 -47 5 -3 11 -19 15 -35 4 -17 11 -30 16 -30 5 0 17 -16 26 -35
9 -19 21 -35 25 -35 5 0 6 -4 3 -10 -3 -5 -1 -10 4 -10 6 0 11 -7 11 -15 0 -8
5 -15 11 -15 5 0 8 -4 4 -9 -3 -6 2 -14 11 -19 9 -5 15 -12 15 -16 -2 -10 29
-68 57 -105 14 -19 20 -31 13 -26 -9 5 -12 3 -9 -6 3 -8 11 -13 18 -11 7 2 10
-3 7 -11 -3 -8 3 -13 19 -13 13 0 21 2 19 4 -2 2 2 11 10 19 13 12 14 53 10
253 l-6 239 101 3 c62 2 100 -1 100 -7 0 -5 4 -4 9 3 6 10 10 10 21 -3 10 -12
10 -15 -1 -15 -9 0 -10 -3 -4 -8 11 -8 15 -902 4 -902 -4 0 -6 -7 -5 -16 0 -9
-5 -19 -12 -21 -8 -3 -10 2 -6 14 5 17 5 17 -6 0 -10 -15 -25 -18 -102 -16
-88 2 -91 2 -125 36 -19 20 -32 41 -29 49 3 8 1 14 -5 14 -6 0 -9 7 -6 14 4
10 1 13 -9 9 -7 -3 -14 0 -14 5 0 6 -11 28 -25 48 -14 21 -23 44 -21 51 3 7 0
15 -6 19 -7 5 -8 2 -3 -6 5 -9 4 -11 -3 -6 -9 5 -9 13 -2 27 10 17 7 23 -12
20 -10 -1 -58 66 -58 83 0 9 -5 16 -11 16 -6 0 -8 7 -5 16 3 8 2 13 -3 10 -10
-7 -36 22 -28 30 3 4 -5 18 -19 32 -13 15 -24 31 -24 37 0 5 5 3 11 -5 7 -10
9 -11 7 -2 -2 8 -6 12 -9 10 -3 -2 -13 3 -21 10 -13 10 -18 9 -29 -4 -11 -14
-14 -68 -14 -261 0 -155 -4 -243 -10 -244 -5 0 -441 -2 -968 -2 -847 -2 -957
0 -952 13 3 8 -2 6 -10 -5 -18 -23 -26 -15 -43 44 -45 149 -53 183 -48 188 3
3 1 12 -5 20 -6 7 -9 22 -6 34 3 12 3 18 -1 15 -6 -7 -41 111 -45 151 -1 13
-5 23 -8 23 -3 0 -5 18 -4 41 2 26 -1 36 -6 28 -6 -10 -9 -6 -9 12 0 15 -10
39 -22 54 l-22 28 -17 -22 c-10 -12 -25 -57 -35 -101 -9 -44 -20 -78 -23 -76
-3 2 -7 -11 -8 -29 -1 -18 -12 -66 -24 -106 -12 -41 -22 -80 -20 -86 1 -7 -3
-22 -9 -34 -6 -11 -12 -33 -12 -49 -1 -17 -5 -27 -11 -23 -6 3 -7 2 -4 -4 6
-10 -11 -93 -22 -105 -5 -5 -1256 -14 -1298 -9 -20 2 -15 21 5 21 11 0 13 3 5
8 -9 5 -13 56 -13 172 -1 97 -6 170 -12 178 -13 15 -310 17 -339 2 -18 -10
-19 -23 -19 -195 l0 -185 -115 0 -115 0 0 480 0 480 114 0 114 0 2 -166 c1
-140 3 -169 17 -183 14 -13 40 -16 162 -15 159 1 183 3 175 16 -3 4 -1 8 5 8
6 0 7 7 4 17 -4 10 -2 14 4 10 6 -4 13 0 16 8 4 8 1 12 -6 9 -9 -3 -12 29 -10
131 1 75 4 143 7 153 5 16 39 17 483 14 263 -1 483 -4 489 -6z"/>
<path d="M1180 1781 c0 -6 4 -13 10 -16 6 -3 7 1 4 9 -7 18 -14 21 -14 7z"/>
<path d="M1666 1628 c5 -7 -1 -9 -16 -5 -24 6 -120 -37 -120 -55 0 -4 -7 -8
-15 -8 -8 0 -15 -7 -15 -15 0 -18 -16 -20 -23 -2 -3 6 -6 0 -6 -15 -1 -20 -6
-28 -18 -28 -15 0 -16 -2 -3 -10 9 -6 10 -10 3 -10 -6 0 -14 -13 -18 -30 -4
-16 -11 -30 -16 -30 -6 0 -8 -3 -5 -8 5 -9 -8 -119 -19 -147 -5 -15 -4 -16 3
-6 8 11 12 6 17 -25 4 -21 16 -54 26 -72 11 -18 15 -30 9 -27 -5 3 -10 2 -10
-3 0 -5 11 -14 25 -20 14 -6 25 -17 25 -24 0 -9 -3 -8 -11 2 -9 13 -10 13 -6
0 2 -8 11 -14 20 -14 14 1 15 -2 6 -20 -9 -16 -9 -19 1 -9 11 10 53 -9 98 -48
12 -10 108 -15 184 -8 25 2 34 6 25 12 -8 6 -4 7 11 4 12 -3 20 -1 16 4 -3 5
2 9 10 9 8 0 22 7 31 16 11 12 19 13 29 5 9 -8 13 -7 13 4 0 8 -4 12 -9 9 -4
-3 -8 0 -8 5 0 6 4 11 8 11 5 0 23 20 41 45 18 25 30 45 27 45 -3 0 2 19 10
43 19 54 17 223 -4 243 -12 13 -9 18 10 15 4 0 5 6 1 15 -4 11 -9 12 -16 5 -7
-7 -18 1 -36 27 -14 20 -26 40 -26 45 0 4 -4 7 -8 6 -5 0 -23 11 -42 25 -18
14 -42 26 -52 26 -15 0 -16 2 -3 10 12 8 10 10 -10 9 -14 0 -51 2 -83 5 -40 3
-55 1 -51 -6z m102 -31 c103 -27 170 -97 198 -209 29 -111 -3 -236 -78 -304
-57 -51 -101 -67 -183 -68 -59 0 -78 4 -124 29 -97 53 -146 147 -144 276 1 81
28 148 81 202 44 46 79 65 135 77 60 11 57 11 115 -3z"/>
<path d="M3363 1605 c-23 -16 -23 -17 -23 -295 0 -267 1 -279 20 -293 11 -8
18 -16 16 -18 -3 -2 37 -3 87 -1 92 3 197 25 197 41 0 5 8 8 18 7 10 0 16 5
14 14 -2 8 0 12 4 8 9 -10 35 12 28 23 -3 5 -2 9 3 8 22 -4 33 3 33 20 0 10 8
25 18 32 15 13 16 12 3 -3 -9 -12 -10 -18 -2 -18 6 0 12 6 13 13 8 66 20 98
34 93 11 -4 12 -2 4 14 -5 10 -11 57 -12 103 -3 68 -6 83 -17 79 -10 -4 -13
-1 -9 9 3 8 1 23 -4 34 -8 18 -8 18 -4 -3 2 -12 0 -20 -5 -16 -5 3 -9 12 -9
20 0 9 -13 28 -29 44 -21 21 -25 32 -17 41 8 9 6 9 -11 0 -27 -14 -30 -4 -5
16 15 12 14 12 -9 2 -21 -9 -31 -8 -52 5 -35 24 -59 28 -167 33 -76 3 -99 1
-117 -12z m251 -35 c113 -43 181 -143 180 -265 -1 -111 -52 -194 -154 -247
-38 -19 -63 -24 -157 -26 l-113 -4 0 281 0 281 95 0 c70 0 108 -5 149 -20z"/>
<path d="M4088 1609 c-15 -8 -18 -25 -18 -99 0 -49 5 -92 10 -95 6 -4 8 -11 5
-16 -3 -5 1 -6 9 -3 9 3 16 1 16 -5 0 -9 5 -9 20 -1 12 6 68 9 137 8 l118 -3
0 -85 0 -85 -147 0 c-80 0 -144 -3 -142 -6 2 -4 -3 -9 -11 -13 -12 -4 -15 -25
-15 -95 0 -80 2 -92 20 -101 20 -11 440 -20 440 -10 0 3 10 10 23 15 22 10 22
10 25 287 2 267 2 278 -18 298 -19 19 -33 20 -237 20 -130 0 -225 -5 -235 -11z
m462 -299 l0 -280 -230 0 -230 0 0 80 0 80 165 0 165 0 0 121 0 121 -165 -4
-165 -3 0 83 0 82 230 0 230 0 0 -280z"/>
<path d="M2175 1550 c3 -5 8 -10 11 -10 2 0 4 5 4 10 0 6 -5 10 -11 10 -5 0
-7 -4 -4 -10z"/>
<path d="M4966 1497 c3 -10 9 -15 12 -12 3 3 0 11 -7 18 -10 9 -11 8 -5 -6z"/>
<path d="M5181 1292 c-7 -13 -6 -19 2 -19 7 0 13 9 13 19 0 10 -1 18 -3 18 -1
0 -7 -8 -12 -18z"/>
<path d="M1443 1095 c0 -8 4 -12 9 -9 5 3 6 10 3 15 -9 13 -12 11 -12 -6z"/>
<path d="M3741 1076 c-9 -11 -9 -16 1 -22 7 -4 10 -4 6 1 -4 4 -3 14 3 22 6 7
9 13 6 13 -2 0 -10 -6 -16 -14z"/>
</g>
</svg>
